<?xml version="1.0"?>
<svg xmlns="http://www.w3.org/2000/svg" xmlns:xlink="http://www.w3.org/1999/xlink" version="1.1" viewBox="0 0 224 224" width="256px" height="256px"><g fill="none" fill-rule="nonzero" stroke="none" stroke-width="1" stroke-linecap="butt" stroke-linejoin="miter" stroke-miterlimit="10" stroke-dasharray="" stroke-dashoffset="0" font-family="none" font-weight="none" font-size="none" text-anchor="none" style="mix-blend-mode: normal"><path d="M0,224v-224h224v224z" fill="none"/><path d="M112,224c-61.85589,0 -112,-50.14411 -112,-112v0c0,-61.85589 50.14411,-112 112,-112v0c61.85589,0 112,50.14411 112,112v0c0,61.85589 -50.14411,112 -112,112z" fill="#ee4444"/><g><g id="surface1"><path d="M161.45123,70.76362h-54.98184l-13.74546,-13.74546h-34.36365c-7.55732,0 -13.74546,6.18814 -13.74546,13.74546v82.47276c0,7.55732 6.18814,13.74546 13.74546,13.74546h106.52731c5.83914,0 10.30909,-4.46996 10.30909,-10.30909v-72.16366c0,-7.55732 -6.18814,-13.74546 -13.74546,-13.74546z" fill="#ffa000"/><path d="M175.88128,91.38181h-92.43285c-6.53714,0 -12.37628,4.80554 -13.40987,11.34269l-11.67827,64.25734h108.93008c6.53715,0 12.37628,-4.80554 13.40988,-11.34269l8.59091,-48.10911c1.71818,-8.24191 -4.81897,-16.14823 -13.40988,-16.14823z" fill="#ffca28"/></g></g><path d="M112,224c-61.85589,0 -112,-50.14411 -112,-112v0c0,-61.85589 50.14411,-112 112,-112v0c61.85589,0 112,50.14411 112,112v0c0,61.85589 -50.14411,112 -112,112z" fill="none"/><path d="M112,219.52c-59.38166,0 -107.52,-48.13834 -107.52,-107.52v0c0,-59.38166 48.13834,-107.52 107.52,-107.52h0c59.38166,0 107.52,48.13834 107.52,107.52v0c0,59.38166 -48.13834,107.52 -107.52,107.52z" fill="none"/></g></svg>
